<svg width="113" height="23" viewBox="0 0 113 23" fill="none" xmlns="http://www.w3.org/2000/svg">
<path d="M9.4978 20.0125L19.5125 9.9978C19.9804 9.5392 20.3528 8.99238 20.6081 8.38896C20.8635 7.78554 20.9966 7.1375 20.9999 6.4823C21.0032 5.82709 20.8766 5.17774 20.6274 4.57177C20.3782 3.9658 20.0113 3.41525 19.548 2.95195C19.0847 2.48864 18.5342 2.12178 17.9282 1.87257C17.3223 1.62336 16.6729 1.49675 16.0177 1.50006C15.3625 1.50337 14.7145 1.63654 14.111 1.89185C13.5076 2.14717 12.9608 2.51957 12.5022 2.98753L2.48753 13.0022C2.01957 13.4608 1.64717 14.0076 1.39185 14.611C1.13654 15.2145 1.00337 15.8625 1.00006 16.5177C0.996754 17.1729 1.12336 17.8223 1.37257 18.4282C1.62178 19.0342 1.98864 19.5847 2.45195 20.048C2.91525 20.5113 3.4658 20.8782 4.07177 21.1274C4.67774 21.3766 5.32709 21.5032 5.9823 21.4999C6.6375 21.4966 7.28554 21.3635 7.88896 21.1081C8.49238 20.8528 9.0392 20.4804 9.4978 20.0125Z" stroke="#FF2149" stroke-width="2.00293" stroke-linecap="round" stroke-linejoin="round"/>
<path d="M7.49487 7.99487L14.5051 15.0051" stroke="#FF2149" stroke-width="2.00293" stroke-linecap="round" stroke-linejoin="round"/>
<path d="M2.48754 9.9978L12.5022 20.0125C12.9608 20.4804 13.5076 20.8528 14.111 21.1081C14.7145 21.3635 15.3625 21.4966 16.0177 21.4999C16.6729 21.5032 17.3223 21.3766 17.9282 21.1274C18.5342 20.8782 19.0847 20.5113 19.5481 20.048C20.0114 19.5847 20.3782 19.0342 20.6274 18.4282C20.8766 17.8223 21.0032 17.1729 20.9999 16.5177C20.9966 15.8625 20.8635 15.2145 20.6081 14.611C20.3528 14.0076 19.9804 13.4608 19.5125 13.0022L9.4978 2.98753C9.0392 2.51957 8.49239 2.14717 7.88897 1.89185C7.28555 1.63653 6.6375 1.50337 5.9823 1.50006C5.3271 1.49675 4.67774 1.62336 4.07178 1.87257C3.46581 2.12178 2.91526 2.48864 2.45195 2.95195C1.98865 3.41525 1.62179 3.9658 1.37258 4.57177C1.12337 5.17773 0.99676 5.82709 1.00007 6.48229C1.00338 7.1375 1.13654 7.78554 1.39186 8.38896C1.64718 8.99238 2.01958 9.5392 2.48754 9.9978Z" stroke="#FF2149" stroke-width="2.00293" stroke-linecap="round" stroke-linejoin="round"/>
<path d="M14.5051 7.99487L7.49486 15.0051" stroke="#FF2149" stroke-width="2.00293" stroke-linecap="round" stroke-linejoin="round"/>
<path d="M34.8578 18.1918C33.8734 18.1918 33.0233 17.9872 32.3074 17.5781C31.5957 17.1648 31.0481 16.581 30.6646 15.8267C30.2811 15.0682 30.0893 14.1754 30.0893 13.1484C30.0893 12.1385 30.2811 11.2521 30.6646 10.4893C31.0524 9.7223 31.5936 9.12571 32.2882 8.69957C32.9828 8.26918 33.7988 8.05398 34.7363 8.05398C35.3414 8.05398 35.9125 8.15199 36.4494 8.34801C36.9906 8.53977 37.4679 8.83807 37.8812 9.2429C38.2988 9.64773 38.627 10.1634 38.8656 10.7898C39.1042 11.4119 39.2235 12.1534 39.2235 13.0142V13.7237H31.176V12.1641H37.0055C37.0012 11.7209 36.9054 11.3267 36.7179 10.9815C36.5304 10.6321 36.2683 10.3572 35.9316 10.157C35.5993 9.95668 35.2115 9.85653 34.7683 9.85653C34.2953 9.85653 33.8798 9.97159 33.5218 10.2017C33.1639 10.4276 32.8848 10.7259 32.6845 11.0966C32.4885 11.4631 32.3883 11.8658 32.3841 12.3047V13.6662C32.3841 14.2372 32.4885 14.7273 32.6973 15.1364C32.9061 15.5412 33.198 15.8523 33.573 16.0696C33.948 16.2827 34.3869 16.3892 34.8897 16.3892C35.2264 16.3892 35.5311 16.3423 35.8038 16.2486C36.0765 16.1506 36.313 16.0078 36.5133 15.8203C36.7136 15.6328 36.8649 15.4006 36.9672 15.1236L39.1277 15.3665C38.9913 15.9375 38.7314 16.4361 38.3478 16.8622C37.9686 17.2841 37.4828 17.6122 36.8904 17.8466C36.2981 18.0767 35.6206 18.1918 34.8578 18.1918ZM47.1321 11.5952V13.5H41.2386V11.5952H47.1321ZM49.6681 18V4.90909H58.0545V6.89702H52.0396V10.451H57.4792V12.4389H52.0396V18H49.6681ZM62.8501 18.1982C62.228 18.1982 61.6676 18.0874 61.169 17.8658C60.6747 17.6399 60.2827 17.3075 59.9929 16.8686C59.7074 16.4297 59.5646 15.8885 59.5646 15.245C59.5646 14.6911 59.6669 14.233 59.8714 13.8707C60.076 13.5085 60.3551 13.2188 60.7088 13.0014C61.0625 12.7841 61.4609 12.62 61.9041 12.5092C62.3516 12.3942 62.8139 12.3111 63.2912 12.2599C63.8665 12.2003 64.3331 12.147 64.6911 12.1001C65.049 12.049 65.3089 11.9723 65.4709 11.87C65.6371 11.7635 65.7202 11.5994 65.7202 11.3778V11.3395C65.7202 10.858 65.5774 10.4851 65.2919 10.2209C65.0064 9.95668 64.5952 9.82457 64.0582 9.82457C63.4915 9.82457 63.0419 9.94815 62.7095 10.1953C62.3814 10.4425 62.1598 10.7344 62.0447 11.071L59.8842 10.7642C60.0547 10.1676 60.3359 9.66903 60.728 9.26847C61.12 8.86364 61.5994 8.56108 62.1662 8.3608C62.733 8.15625 63.3594 8.05398 64.0455 8.05398C64.5185 8.05398 64.9893 8.10938 65.4581 8.22017C65.9268 8.33097 66.3551 8.5142 66.7429 8.76989C67.1307 9.02131 67.4418 9.36435 67.6761 9.79901C67.9148 10.2337 68.0341 10.777 68.0341 11.429V18H65.8097V16.6513H65.733C65.5923 16.924 65.3942 17.1797 65.1385 17.4183C64.8871 17.6527 64.5696 17.8423 64.1861 17.9872C63.8068 18.1278 63.3615 18.1982 62.8501 18.1982ZM63.451 16.4979C63.9155 16.4979 64.3182 16.4062 64.6591 16.223C65 16.0355 65.2621 15.7884 65.4453 15.4815C65.6328 15.1747 65.7266 14.8402 65.7266 14.478V13.321C65.6541 13.3807 65.5305 13.4361 65.3558 13.4872C65.1854 13.5384 64.9936 13.5831 64.7805 13.6214C64.5675 13.6598 64.3565 13.6939 64.1477 13.7237C63.9389 13.7536 63.7578 13.7791 63.6044 13.8004C63.2592 13.8473 62.9503 13.924 62.6776 14.0305C62.4048 14.1371 62.1896 14.2862 62.032 14.478C61.8743 14.6655 61.7955 14.9084 61.7955 15.2067C61.7955 15.6328 61.951 15.9545 62.2621 16.1719C62.5732 16.3892 62.9695 16.4979 63.451 16.4979ZM70.3608 18V8.18182H72.6044V9.81818H72.7067C72.8857 9.25142 73.1925 8.81463 73.6271 8.50781C74.0661 8.19673 74.5668 8.04119 75.1293 8.04119C75.2571 8.04119 75.3999 8.04758 75.5575 8.06037C75.7195 8.06889 75.8537 8.08381 75.9602 8.10511V10.2337C75.8622 10.1996 75.7067 10.1697 75.4936 10.1442C75.2848 10.1143 75.0824 10.0994 74.8864 10.0994C74.4645 10.0994 74.0852 10.1911 73.7486 10.3743C73.4162 10.5533 73.1541 10.8026 72.9624 11.1222C72.7706 11.4418 72.6747 11.8104 72.6747 12.228V18H70.3608ZM77.4975 18V8.18182H79.7092V9.85014H79.8242C80.0288 9.28764 80.3675 8.84872 80.8406 8.53338C81.3136 8.21378 81.8782 8.05398 82.5344 8.05398C83.1992 8.05398 83.7596 8.21591 84.2156 8.53977C84.6758 8.85937 84.9996 9.29616 85.1871 9.85014H85.2894C85.5067 9.30469 85.8732 8.87003 86.3889 8.54616C86.9087 8.21804 87.5245 8.05398 88.2362 8.05398C89.1396 8.05398 89.8768 8.33949 90.4478 8.91051C91.0188 9.48153 91.3043 10.3146 91.3043 11.4098V18H88.984V11.7678C88.984 11.1584 88.8221 10.7131 88.4982 10.4318C88.1744 10.1463 87.7781 10.0036 87.3093 10.0036C86.7511 10.0036 86.3143 10.1783 85.9989 10.5277C85.6879 10.8729 85.5323 11.3224 85.5323 11.8764V18H83.2631V11.6719C83.2631 11.1648 83.1097 10.7599 82.8029 10.4574C82.5004 10.1548 82.104 10.0036 81.614 10.0036C81.2816 10.0036 80.979 10.0888 80.7063 10.2592C80.4336 10.4254 80.2163 10.6619 80.0543 10.9688C79.8924 11.2713 79.8114 11.625 79.8114 12.0298V18H77.4975ZM96.4771 18.1982C95.8549 18.1982 95.2946 18.0874 94.796 17.8658C94.3017 17.6399 93.9096 17.3075 93.6199 16.8686C93.3343 16.4297 93.1916 15.8885 93.1916 15.245C93.1916 14.6911 93.2939 14.233 93.4984 13.8707C93.7029 13.5085 93.9821 13.2188 94.3358 13.0014C94.6895 12.7841 95.0879 12.62 95.5311 12.5092C95.9785 12.3942 96.4409 12.3111 96.9181 12.2599C97.4934 12.2003 97.96 12.147 98.318 12.1001C98.676 12.049 98.9359 11.9723 99.0978 11.87C99.264 11.7635 99.3471 11.5994 99.3471 11.3778V11.3395C99.3471 10.858 99.2044 10.4851 98.9189 10.2209C98.6333 9.95668 98.2221 9.82457 97.6852 9.82457C97.1184 9.82457 96.6689 9.94815 96.3365 10.1953C96.0083 10.4425 95.7868 10.7344 95.6717 11.071L93.5112 10.7642C93.6816 10.1676 93.9629 9.66903 94.3549 9.26847C94.747 8.86364 95.2264 8.56108 95.7931 8.3608C96.3599 8.15625 96.9863 8.05398 97.6724 8.05398C98.1454 8.05398 98.6163 8.10938 99.0851 8.22017C99.5538 8.33097 99.9821 8.5142 100.37 8.76989C100.758 9.02131 101.069 9.36435 101.303 9.79901C101.542 10.2337 101.661 10.777 101.661 11.429V18H99.4366V16.6513H99.3599C99.2193 16.924 99.0211 17.1797 98.7654 17.4183C98.514 17.6527 98.1966 17.8423 97.813 17.9872C97.4338 18.1278 96.9885 18.1982 96.4771 18.1982ZM97.0779 16.4979C97.5424 16.4979 97.9451 16.4062 98.286 16.223C98.627 16.0355 98.889 15.7884 99.0723 15.4815C99.2598 15.1747 99.3535 14.8402 99.3535 14.478V13.321C99.2811 13.3807 99.1575 13.4361 98.9828 13.4872C98.8123 13.5384 98.6206 13.5831 98.4075 13.6214C98.1944 13.6598 97.9835 13.6939 97.7747 13.7237C97.5659 13.7536 97.3848 13.7791 97.2314 13.8004C96.8862 13.8473 96.5772 13.924 96.3045 14.0305C96.0318 14.1371 95.8166 14.2862 95.6589 14.478C95.5012 14.6655 95.4224 14.9084 95.4224 15.2067C95.4224 15.6328 95.5779 15.9545 95.889 16.1719C96.2001 16.3892 96.5964 16.4979 97.0779 16.4979ZM111.748 10.777L109.638 11.0071C109.579 10.794 109.474 10.5938 109.325 10.4062C109.18 10.2188 108.984 10.0675 108.737 9.95241C108.49 9.83736 108.187 9.77983 107.829 9.77983C107.348 9.77983 106.943 9.88423 106.615 10.093C106.291 10.3018 106.131 10.5724 106.135 10.9048C106.131 11.1903 106.236 11.4226 106.449 11.6016C106.666 11.7805 107.024 11.9276 107.523 12.0426L109.197 12.4006C110.126 12.6009 110.817 12.9183 111.268 13.353C111.724 13.7876 111.954 14.3565 111.959 15.0597C111.954 15.6776 111.773 16.223 111.415 16.696C111.062 17.1648 110.569 17.5312 109.939 17.7955C109.308 18.0597 108.584 18.1918 107.765 18.1918C106.564 18.1918 105.596 17.9403 104.863 17.4375C104.131 16.9304 103.694 16.2251 103.553 15.3217L105.809 15.1044C105.912 15.5476 106.129 15.8821 106.461 16.108C106.794 16.3338 107.226 16.4467 107.759 16.4467C108.309 16.4467 108.75 16.3338 109.082 16.108C109.419 15.8821 109.587 15.603 109.587 15.2706C109.587 14.9893 109.479 14.7571 109.261 14.5739C109.048 14.3906 108.716 14.25 108.264 14.152L106.589 13.8004C105.648 13.6044 104.951 13.2741 104.499 12.8097C104.047 12.3409 103.824 11.7486 103.828 11.0327C103.824 10.4276 103.988 9.90341 104.32 9.46023C104.657 9.01278 105.123 8.66761 105.72 8.42472C106.321 8.17756 107.013 8.05398 107.797 8.05398C108.948 8.05398 109.854 8.29901 110.514 8.78906C111.179 9.27912 111.59 9.94176 111.748 10.777Z" fill="#2C5AFF"/>
</svg>
